ply
format ascii 1.0
element vertex 739
property float x
property float y
property float z
property uchar red
property uchar green
property uchar blue
end_header
-0.2571 0.5567 -0.0051 0 3 255
-0.2571 0.5567 0.0342 0 117 255
-0.2571 0.5567 0.0800 0 251 255
-0.2571 0.5567 0.1192 110 255 144
-0.2571 0.5567 0.1585 225 255 29
-0.2571 0.5567 0.1977 255 170 0
-0.2571 0.5567 0.2370 255 56 0
-0.2571 0.5567 0.2762 196 0 0
-0.2571 0.5567 0.3155 127 0 0
-0.2571 0.5566 0.3547 127 0 0
-0.2571 0.5566 0.3940 127 0 0
-0.2572 0.5901 -0.0002 0 17 255
-0.2572 0.5730 0.0375 0 127 255
-0.2571 0.5729 0.0778 0 244 255
-0.2571 0.5729 0.1180 107 255 147
-0.2571 0.5729 0.1583 224 255 30
-0.2571 0.5729 0.1985 255 168 0
-0.2571 0.5729 0.2388 255 50 0
-0.2571 0.5729 0.2790 188 0 0
-0.2571 0.5729 0.3193 127 0 0
-0.2571 0.5729 0.3595 127 0 0
-0.2571 0.5729 0.3931 127 0 0
-0.2488 0.6289 -0.0062 0 0 255
-0.2489 0.6290 0.0399 0 134 255
-0.2489 0.6290 0.0794 0 249 255
-0.2489 0.6291 0.1189 109 255 145
-0.2490 0.6292 0.1584 224 255 30
-0.2490 0.6293 0.1979 255 169 0
-0.2490 0.6294 0.2375 255 54 0
-0.2491 0.6294 0.2770 194 0 0
-0.2491 0.6295 0.3166 127 0 0
-0.2491 0.6296 0.3561 127 0 0
-0.2492 0.6297 0.3957 127 0 0
-0.2489 0.6632 -0.0018 0 12 255
-0.2489 0.6633 0.0399 0 134 255
-0.2489 0.6457 0.0771 0 242 255
-0.2490 0.6458 0.1176 106 255 148
-0.2490 0.6459 0.1582 224 255 30
-0.2490 0.6460 0.1988 255 167 0
-0.2491 0.6461 0.2394 255 48 0
-0.2491 0.6462 0.2733 205 0 0
-0.2491 0.6462 0.3139 127 0 0
-0.2491 0.6463 0.3546 127 0 0
-0.2492 0.6464 0.3952 127 0 0
-0.2468 0.7163 -0.0005 0 16 255
-0.2489 0.7017 0.0398 0 134 255
-0.2490 0.6820 0.0792 0 248 255
-0.2467 0.7161 0.1199 112 255 142
-0.2490 0.6822 0.1578 223 255 31
-0.2490 0.6823 0.1936 255 182 0
-0.2491 0.6824 0.2366 255 57 0
-0.2491 0.6825 0.2795 187 0 0
-0.2491 0.6826 0.3153 127 0 0
-0.2492 0.6827 0.3583 127 0 0
-0.2492 0.6827 0.3941 127 0 0
-0.2413 0.7218 -0.0019 0 12 255
-0.2412 0.7218 0.0361 0 123 255
-0.2412 0.7217 0.0740 0 233 255
-0.2412 0.7216 0.1195 111 255 143
-0.2411 0.7215 0.1574 221 255 33
-0.2411 0.7214 0.1953 255 177 0
-0.2411 0.7213 0.2332 255 67 0
-0.2410 0.7212 0.2787 189 0 0
-0.2410 0.7211 0.3165 127 0 0
-0.2410 0.7210 0.3544 127 0 0
-0.2410 0.7209 0.3998 127 0 0
-0.2353 0.5906 -0.0327 0 0 178
-0.2335 0.6396 -0.0295 0 0 187
-0.2347 0.6617 -0.0294 0 0 187
-0.2376 0.7109 -0.0292 0 0 188
-0.2122 0.7509 -0.0012 0 14 255
-0.2182 0.7448 0.0395 0 133 255
-0.2241 0.7388 0.0795 0 249 255
-0.2356 0.7272 0.1191 110 255 144
-0.2355 0.7271 0.1574 221 255 33
-0.2355 0.7270 0.1956 255 176 0
-0.2355 0.7269 0.2338 255 65 0
-0.2354 0.7268 0.2796 186 0 0
-0.2354 0.7267 0.3178 127 0 0
-0.2354 0.7267 0.3560 127 0 0
-0.2354 0.7266 0.3942 127 0 0
-0.2180 0.7440 0.4001 127 0 0
-0.2199 0.7628 -0.0055 0 2 255
-0.2199 0.7628 0.0371 0 126 255
-0.2199 0.7628 0.0798 0 250 255
-0.2199 0.7628 0.1139 95 255 159
-0.2199 0.7627 0.1565 219 255 35
-0.2199 0.7627 0.1991 255 166 0
-0.2199 0.7627 0.2332 255 67 0
-0.2199 0.7627 0.2758 198 0 0
-0.2199 0.7627 0.3184 127 0 0
-0.2199 0.7627 0.3525 127 0 0
-0.2199 0.7627 0.3951 127 0 0
-0.2012 0.8012 -0.0072 0 0 252
-0.2012 0.8012 0.0338 0 116 255
-0.2012 0.8012 0.0748 0 236 255
-0.2012 0.8012 0.1158 100 255 154
-0.2012 0.8012 0.1568 220 255 34
-0.2012 0.8012 0.1978 255 170 0
-0.2012 0.8012 0.2388 255 50 0
-0.2012 0.8012 0.2798 186 0 0
-0.2012 0.8012 0.3126 127 0 0
-0.2012 0.8012 0.3536 127 0 0
-0.2012 0.8012 0.3946 127 0 0
-0.1963 0.5810 -0.0327 0 0 177
-0.2000 0.6376 -0.0295 0 0 187
-0.1931 0.6592 -0.0294 0 0 187
-0.1928 0.7081 -0.0292 0 0 188
-0.1927 0.7355 -0.0290 0 0 188
-0.1806 0.7826 -0.0005 0 16 255
-0.1739 0.7892 0.0398 0 134 255
-0.1999 0.7630 0.0764 0 240 255
-0.1998 0.7629 0.1167 103 255 151
-0.1998 0.7629 0.1570 220 255 34
-0.1998 0.7628 0.1972 255 172 0
-0.1998 0.7627 0.2374 255 54 0
-0.1997 0.7626 0.2777 192 0 0
-0.1997 0.7625 0.3179 127 0 0
-0.1997 0.7624 0.3581 127 0 0
-0.1997 0.7623 0.3983 127 0 0
-0.1933 0.7686 0.4004 127 0 0
-0.1602 0.8030 -0.0051 0 3 255
-0.1602 0.8029 0.0374 0 127 255
-0.1601 0.8028 0.0800 0 251 255
-0.1601 0.8027 0.1140 95 255 159
-0.1601 0.8026 0.1565 219 255 35
-0.1601 0.8025 0.1990 255 166 0
-0.1601 0.8024 0.2330 255 67 0
-0.1600 0.8023 0.2755 198 0 0
-0.1600 0.8022 0.3179 127 0 0
-0.1600 0.8022 0.3349 127 0 0
-0.1770 0.8056 0.3943 127 0 0
-0.1586 0.5932 -0.0327 0 0 177
-0.1598 0.6351 -0.0295 0 0 187
-0.1427 0.6797 -0.0293 0 0 187
-0.1555 0.7059 -0.0291 0 0 188
-0.1539 0.7332 -0.0290 0 0 188
-0.1586 0.7952 -0.0287 0 0 189
-0.1386 0.8246 -0.0013 0 14 255
-0.1531 0.8100 0.0362 0 123 255
-0.1531 0.8099 0.0792 0 248 255
-0.1531 0.8098 0.1135 94 255 160
-0.1530 0.8097 0.1564 219 255 35
-0.1530 0.8096 0.1993 255 165 0
-0.1530 0.8095 0.2336 255 65 0
-0.1530 0.8094 0.2765 195 0 0
-0.1530 0.8093 0.3194 127 0 0
-0.1600 0.8021 0.3519 127 0 0
-0.1600 0.8020 0.3944 127 0 0
-0.1384 0.8236 0.4010 127 0 0
-0.1231 0.8597 -0.0005 0 16 255
-0.1389 0.8438 0.0378 0 128 255
-0.1389 0.8438 0.0742 0 234 255
-0.1389 0.8438 0.1196 111 255 143
-0.1389 0.8437 0.1559 217 255 37
-0.1389 0.8437 0.1923 255 186 0
-0.1389 0.8437 0.2377 255 54 0
-0.1389 0.8437 0.2740 203 0 0
-0.1389 0.8437 0.3194 127 0 0
-0.1389 0.8437 0.3557 127 0 0
-0.1389 0.8437 0.3921 127 0 0
-0.1196 0.6327 -0.0295 0 0 187
-0.1139 0.6780 -0.0292 0 0 188
-0.1182 0.7036 -0.0291 0 0 188
-0.1037 0.7597 -0.0288 0 0 189
-0.1166 0.7927 -0.0287 0 0 189
-0.1130 0.8275 -0.0285 0 0 190
-0.0997 0.8635 -0.0005 0 16 255
-0.1157 0.8474 0.0389 0 131 255
-0.1157 0.8473 0.0749 0 236 255
-0.1157 0.8472 0.1200 112 255 142
-0.1157 0.8471 0.1560 217 255 37
-0.1156 0.8470 0.1920 255 187 0
-0.1156 0.8469 0.2370 255 56 0
-0.1156 0.8468 0.2730 206 0 0
-0.1156 0.8467 0.3180 127 0 0
-0.1156 0.8466 0.3540 127 0 0
-0.1156 0.8465 0.3990 127 0 0
-0.1076 0.8544 0.4013 127 0 0
-0.0830 0.8802 -0.0039 0 6 255
-0.0830 0.8801 0.0337 0 116 255
-0.0830 0.8800 0.0712 0 225 255
-0.0830 0.8800 0.0806 0 253 255
-0.0985 0.8842 0.1556 216 255 38
-0.0985 0.8842 0.1931 255 184 0
-0.0985 0.8842 0.2399 255 47 0
-0.0985 0.8842 0.2774 193 0 0
-0.0985 0.8841 0.3148 127 0 0
-0.0985 0.8841 0.3523 127 0 0
-0.0985 0.8841 0.3897 127 0 0
-0.0794 0.6303 -0.0294 0 0 187
-0.0780 0.6758 -0.0292 0 0 188
-0.0735 0.7009 -0.0291 0 0 188
-0.0795 0.7583 -0.0288 0 0 189
-0.0745 0.7901 -0.0287 0 0 189
-0.0778 0.8253 -0.0285 0 0 190
-0.0723 0.8633 -0.0283 0 0 190
-0.0475 0.9158 -0.0013 0 14 255
-0.0567 0.9065 0.0392 0 132 255
-0.0744 0.8886 0.0797 0 250 255
-0.0744 0.8885 0.1176 105 255 149
-0.0744 0.8884 0.1555 216 255 38
-0.0744 0.8883 0.1934 255 183 0
-0.0744 0.8882 0.2313 255 72 0
-0.0744 0.8881 0.2786 189 0 0
-0.0743 0.8880 0.3165 127 0 0
-0.0743 0.8879 0.3544 127 0 0
-0.0743 0.8878 0.3922 127 0 0
-0.0743 0.8877 0.4017 127 0 0
-0.0466 0.9362 -0.0003 0 17 255
-0.0555 0.9272 0.0394 0 133 255
-0.0555 0.9272 0.0781 0 245 255
-0.0555 0.9272 0.1167 103 255 151
-0.0555 0.9272 0.1553 215 255 39
-0.0555 0.9272 0.1940 255 181 0
-0.0555 0.9272 0.2326 255 68 0
-0.0555 0.9272 0.2713 211 0 0
-0.0555 0.9272 0.3196 127 0 0
-0.0555 0.9271 0.3582 127 0 0
-0.0555 0.9271 0.3968 127 0 0
-0.0392 0.6278 -0.0294 0 0 187
-0.0349 0.6732 -0.0292 0 0 188
-0.0362 0.6986 -0.0291 0 0 188
-0.0392 0.7558 -0.0288 0 0 189
-0.0325 0.7875 -0.0287 0 0 189
-0.0339 0.8226 -0.0285 0 0 190
-0.0355 0.8610 -0.0283 0 0 190
-0.0373 0.9032 -0.0281 0 0 191
-0.0382 0.9251 -0.0031 0 9 255
-0.0382 0.9250 0.0364 0 124 255
-0.0381 0.9249 0.0760 0 239 255
-0.0381 0.9248 0.1156 100 255 154
-0.0381 0.9247 0.1551 215 255 39
-0.0381 0.9246 0.1947 255 179 0
-0.0381 0.9245 0.2342 255 64 0
-0.0381 0.9244 0.2737 204 0 0
-0.0381 0.9242 0.3132 127 0 0
-0.0381 0.9241 0.3527 127 0 0
-0.0381 0.9240 0.3922 127 0 0
-0.0191 0.9637 -0.0035 0 7 255
-0.0191 0.9637 0.0361 0 123 255
-0.0191 0.9637 0.0758 0 239 255
-0.0191 0.9636 0.1154 99 255 155
-0.0191 0.9636 0.1551 215 255 39
-0.0191 0.9636 0.1947 255 179 0
-0.0191 0.9636 0.2344 255 63 0
-0.0191 0.9636 0.2740 203 0 0
-0.0191 0.9636 0.3137 127 0 0
-0.0191 0.9636 0.3533 127 0 0
-0.0191 0.9636 0.3930 127 0 0
0.0009 0.6254 -0.0294 0 0 187
0.0010 0.6710 -0.0292 0 0 188
0.0010 0.6964 -0.0291 0 0 188
0.0011 0.7533 -0.0288 0 0 189
0.0011 0.7855 -0.0286 0 0 189
0.0012 0.8205 -0.0285 0 0 190
0.0012 0.8588 -0.0283 0 0 190
0.0013 0.9008 -0.0281 0 0 191
0.0014 0.9471 -0.0279 0 0 191
0.0014 0.9647 -0.0004 0 16 255
0.0119 0.9751 0.0395 0 133 255
0.0335 0.9966 0.0794 0 249 255
0.0014 0.9644 0.1133 93 255 161
0.0014 0.9643 0.1547 213 255 41
0.0014 0.9642 0.1960 255 175 0
0.0014 0.9640 0.2373 255 55 0
0.0014 0.9639 0.2786 189 0 0
0.0014 0.9638 0.3199 127 0 0
0.0014 0.9637 0.3509 127 0 0
0.0014 0.9636 0.3922 127 0 0
0.0335 0.9956 0.4002 127 0 0
0.0392 1.0220 -0.0001 0 18 255
0.0193 1.0020 0.0327 0 113 255
0.0193 1.0020 0.0734 0 232 255
0.0193 1.0020 0.1141 95 255 159
0.0193 1.0020 0.1548 214 255 40
0.0193 1.0020 0.1955 255 176 0
0.0193 1.0020 0.2362 255 58 0
0.0193 1.0020 0.2769 194 0 0
0.0193 1.0020 0.3177 127 0 0
0.0193 1.0019 0.3584 127 0 0
0.0193 1.0019 0.3889 127 0 0
0.0410 0.6230 -0.0294 0 0 187
0.0440 0.6684 -0.0291 0 0 188
0.0630 0.7200 -0.0289 0 0 189
0.0414 0.7509 -0.0288 0 0 189
0.0432 0.7829 -0.0286 0 0 189
0.0451 0.8178 -0.0284 0 0 190
0.0472 0.8560 -0.0283 0 0 190
0.0495 0.8978 -0.0281 0 0 191
0.0419 0.9446 -0.0279 0 0 192
0.0442 0.9959 -0.0276 0 0 192
0.0680 1.0314 -0.0014 0 14 255
0.0447 1.0080 0.0350 0 120 255
0.0447 1.0079 0.0784 0 246 255
0.0447 1.0078 0.1109 86 255 168
0.0447 1.0076 0.1542 212 255 42
0.0447 1.0075 0.1975 255 171 0
0.0447 1.0074 0.2299 255 76 0
0.0447 1.0072 0.2732 205 0 0
0.0447 1.0071 0.3165 127 0 0
0.0447 1.0070 0.3598 127 0 0
0.0447 1.0069 0.3922 127 0 0
0.0597 1.0425 -0.0023 0 11 255
0.0597 1.0425 0.0395 0 133 255
0.0800 1.0432 0.0752 0 237 255
0.0800 1.0431 0.1089 80 255 174
0.0800 1.0429 0.1538 211 255 43
0.0800 1.0428 0.1987 255 167 0
0.0800 1.0427 0.2323 255 69 0
0.0799 1.0425 0.2772 193 0 0
0.0799 1.0424 0.3109 127 0 0
0.0799 1.0423 0.3557 127 0 0
0.0799 1.0422 0.3894 127 0 0
0.0799 1.0421 0.4006 127 0 0
0.0850 0.5998 -0.0294 0 0 187
0.0812 0.6205 -0.0293 0 0 187
0.0871 0.6657 -0.0291 0 0 188
0.0862 0.7185 -0.0289 0 0 189
0.0817 0.7484 -0.0287 0 0 189
0.0852 0.7804 -0.0286 0 0 189
0.0802 0.8157 -0.0284 0 0 190
0.0839 0.8537 -0.0282 0 0 190
0.0880 0.8955 -0.0280 0 0 191
0.0824 0.9421 -0.0278 0 0 192
0.0869 0.9932 -0.0276 0 0 192
0.1124 1.0017 -0.0323 0 0 178
0.0800 1.0434 -0.0035 0 8 255
0.0924 1.0557 0.0399 0 134 255
0.0923 1.0556 0.0740 0 233 255
0.0923 1.0554 0.1195 111 255 143
0.0923 1.0553 0.1536 210 255 44
0.0923 1.0551 0.1991 255 166 0
0.0923 1.0550 0.2332 255 67 0
0.0923 1.0549 0.2786 189 0 0
0.0923 1.0548 0.3127 127 0 0
0.0923 1.0546 0.3581 127 0 0
0.0923 1.0545 0.3922 127 0 0
0.1180 1.0815 -0.0100 0 0 244
0.1180 1.0814 0.0367 0 125 255
0.1180 1.0812 0.0717 0 227 255
0.1180 1.0811 0.1184 108 255 146
0.1180 1.0810 0.1533 210 255 44
0.1179 1.0808 0.2000 255 164 0
0.1179 1.0807 0.2349 255 62 0
0.1179 1.0806 0.2699 215 0 0
0.1179 1.0804 0.3165 127 0 0
0.1179 1.0803 0.3514 127 0 0
0.1179 1.0801 0.3980 127 0 0
0.1238 0.5974 -0.0294 0 0 187
0.1256 0.6398 -0.0292 0 0 188
0.1230 0.6636 -0.0291 0 0 188
0.1249 0.7162 -0.0289 0 0 189
0.1220 0.7460 -0.0287 0 0 189
0.1272 0.7778 -0.0286 0 0 189
0.1240 0.8130 -0.0284 0 0 190
0.1206 0.8514 -0.0282 0 0 190
0.1266 0.8931 -0.0280 0 0 191
0.1229 0.9396 -0.0278 0 0 192
0.1296 0.9906 -0.0276 0 0 192
0.1218 1.0048 -0.0323 0 0 178
0.1257 1.0481 -0.0273 0 0 193
0.1313 1.0948 -0.0004 0 16 255
0.1313 1.0947 0.0350 0 120 255
0.1313 1.0946 0.0705 0 223 255
0.1313 1.0944 0.1178 106 255 148
0.1313 1.0943 0.1532 209 255 45
0.1313 1.0942 0.1886 255 197 0
0.1313 1.0940 0.2358 255 59 0
0.1312 1.0939 0.2713 211 0 0
0.1312 1.0937 0.3185 127 0 0
0.1312 1.0936 0.3538 127 0 0
0.1312 1.0935 0.3892 127 0 0
0.1312 1.0935 0.4010 127 0 0
0.1591 1.1226 -0.0048 0 4 255
0.1591 1.1225 0.0316 0 110 255
0.1590 1.1223 0.0680 0 216 255
0.1590 1.1222 0.1165 102 255 152
0.1590 1.1220 0.1529 208 255 46
0.1590 1.1219 0.1892 255 195 0
0.1590 1.1217 0.2377 255 53 0
0.1589 1.1216 0.2741 203 0 0
0.1589 1.1215 0.3104 127 0 0
0.1589 1.1213 0.3589 127 0 0
0.1589 1.1212 0.3952 127 0 0
0.1626 0.5951 -0.0294 0 0 187
0.1602 0.6377 -0.0292 0 0 188
0.1660 0.6610 -0.0291 0 0 188
0.1636 0.7138 -0.0288 0 0 189
0.1622 0.7435 -0.0287 0 0 189
0.1607 0.7757 -0.0285 0 0 190
0.1679 0.8103 -0.0284 0 0 190
0.1666 0.8486 -0.0282 0 0 191
0.1651 0.8907 -0.0280 0 0 191
0.1634 0.9371 -0.0278 0 0 192
0.1616 0.9886 -0.0275 0 0 192
0.1687 1.0200 -0.0323 0 0 178
0.1709 1.0453 -0.0273 0 0 193
0.1693 1.1096 -0.0270 0 0 194
0.1735 1.1370 -0.0071 0 0 252
0.1735 1.1369 0.0298 0 104 255
0.1734 1.1367 0.0790 0 248 255
0.1734 1.1366 0.1158 100 255 154
0.1734 1.1365 0.1527 208 255 46
0.1734 1.1363 0.1896 255 194 0
0.1734 1.1362 0.2387 255 51 0
0.1733 1.1360 0.2756 198 0 0
0.1733 1.1359 0.3124 127 0 0
0.1733 1.1358 0.3492 127 0 0
0.1733 1.1356 0.3983 127 0 0
0.1881 1.1504 0.4015 127 0 0
0.1834 1.1663 -0.0047 0 4 255
0.1957 1.1785 0.0396 0 133 255
0.1834 1.1663 0.0745 0 235 255
0.1834 1.1663 0.1198 112 255 142
0.1834 1.1662 0.1537 211 255 43
0.1834 1.1662 0.1989 255 167 0
0.1834 1.1662 0.2329 255 68 0
0.1834 1.1662 0.2781 191 0 0
0.1834 1.1662 0.3121 127 0 0
0.1834 1.1662 0.3573 127 0 0
0.1834 1.1662 0.3912 127 0 0
0.2014 0.5927 -0.0294 0 0 187
0.2017 0.6352 -0.0292 0 0 188
0.2019 0.6588 -0.0291 0 0 188
0.2023 0.7115 -0.0288 0 0 189
0.2025 0.7411 -0.0287 0 0 189
0.2027 0.7732 -0.0285 0 0 190
0.2030 0.8081 -0.0284 0 0 190
0.2033 0.8464 -0.0282 0 0 191
0.2036 0.8884 -0.0280 0 0 191
0.2039 0.9347 -0.0278 0 0 192
0.2043 0.9860 -0.0275 0 0 193
0.2063 1.0321 -0.0323 0 0 178
0.2047 1.0432 -0.0272 0 0 193
0.2052 1.1073 -0.0269 0 0 194
0.2088 1.1396 -0.0322 0 0 179
0.2192 1.1828 -0.0016 0 13 255
0.2035 1.1669 0.0387 0 130 255
0.2035 1.1668 0.0766 0 241 255
0.2035 1.1667 0.1145 96 255 158
0.2034 1.1665 0.1524 207 255 47
0.2034 1.1664 0.1903 255 192 0
0.2034 1.1663 0.2281 255 81 0
0.2034 1.1661 0.2786 189 0 0
0.2033 1.1659 0.3165 127 0 0
0.2033 1.1658 0.3543 127 0 0
0.2033 1.1657 0.3922 127 0 0
0.2208 1.2036 -0.0086 0 0 248
0.2208 1.2036 0.0377 0 128 255
0.2208 1.2036 0.0724 0 229 255
0.2208 1.2036 0.1187 109 255 145
0.2208 1.2036 0.1534 210 255 44
0.2208 1.2036 0.1997 255 164 0
0.2208 1.2036 0.2344 255 63 0
0.2208 1.2035 0.2691 217 0 0
0.2208 1.2035 0.3154 127 0 0
0.2208 1.2035 0.3501 127 0 0
0.2208 1.2035 0.3964 127 0 0
0.2401 0.5904 -0.0293 0 0 187
0.2432 0.6327 -0.0291 0 0 188
0.2765 0.6796 -0.0289 0 0 189
0.2409 0.7091 -0.0288 0 0 189
0.2427 0.7386 -0.0286 0 0 189
0.2447 0.7706 -0.0285 0 0 190
0.2468 0.8055 -0.0283 0 0 190
0.2491 0.8436 -0.0281 0 0 191
0.2421 0.8860 -0.0280 0 0 191
0.2444 0.9322 -0.0277 0 0 192
0.2470 0.9833 -0.0275 0 0 193
0.2611 1.0397 -0.0272 0 0 193
0.2499 1.0404 -0.0272 0 0 193
0.2411 1.1051 -0.0269 0 0 194
0.2440 1.1774 -0.0266 0 0 195
0.2519 1.2155 -0.0064 0 0 254
0.2518 1.2153 0.0332 0 114 255
0.2518 1.2152 0.0727 0 230 255
0.2518 1.2150 0.1123 90 255 164
0.2517 1.2149 0.1518 205 255 49
0.2517 1.2147 0.1914 255 189 0
0.2517 1.2146 0.2309 255 73 0
0.2516 1.2144 0.2704 213 0 0
0.2516 1.2143 0.3099 127 0 0
0.2516 1.2141 0.3494 127 0 0
0.2516 1.2140 0.3889 127 0 0
0.2515 1.2139 0.4020 127 0 0
0.2854 0.5876 -0.0293 0 0 187
0.2847 0.6302 -0.0291 0 0 188
0.3061 0.6776 -0.0064 0 0 254
0.3061 0.6775 0.0383 0 129 255
0.3060 0.6774 0.0756 0 238 255
0.3060 0.6773 0.1128 92 255 162
0.3060 0.6773 0.1575 222 255 32
0.3059 0.6772 0.1948 255 179 0
0.3059 0.6771 0.2395 255 48 0
0.3059 0.6770 0.2767 195 0 0
0.3058 0.6605 0.3177 127 0 0
0.3098 0.6532 0.3593 127 0 0
0.3058 0.6604 0.3976 127 0 0
0.3061 0.6948 -0.0031 0 9 255
0.3060 0.6948 0.0351 0 120 255
0.3060 0.6947 0.0733 0 231 255
0.3060 0.6946 0.1192 110 255 144
0.3059 0.6945 0.1574 221 255 33
0.3059 0.6945 0.1955 255 176 0
0.3059 0.6944 0.2337 255 65 0
0.3058 0.6943 0.2795 187 0 0
0.3058 0.6942 0.3177 127 0 0
0.3058 0.6942 0.3558 127 0 0
0.3058 0.6941 0.3939 127 0 0
0.2830 0.7362 -0.0286 0 0 189
0.2866 0.7680 -0.0285 0 0 190
0.3134 0.8396 -0.0281 0 0 191
0.2858 0.8413 -0.0281 0 0 191
0.2806 0.8836 -0.0279 0 0 191
0.2849 0.9297 -0.0277 0 0 192
0.2896 0.9807 -0.0275 0 0 193
0.2837 1.0383 -0.0272 0 0 193
0.2890 1.1021 -0.0269 0 0 194
0.2822 1.1751 -0.0266 0 0 195
0.3046 1.2682 -0.0004 0 17 255
0.2865 1.2500 0.0292 0 103 255
0.2864 1.2498 0.0700 0 222 255
0.2864 1.2497 0.1107 85 255 169
0.2863 1.2495 0.1514 204 255 50
0.2863 1.2494 0.1921 255 186 0
0.2863 1.2492 0.2328 255 68 0
0.2862 1.2490 0.2735 204 0 0
0.2862 1.2489 0.3142 127 0 0
0.2862 1.2487 0.3549 127 0 0
0.2861 1.2486 0.3955 127 0 0
0.3241 0.5853 -0.0293 0 0 187
0.3310 0.5976 0.2377 255 53 0
0.3309 0.5975 0.2774 193 0 0
0.3309 0.5975 0.3171 127 0 0
0.3309 0.5854 0.3595 127 0 0
0.3308 0.5853 0.3983 127 0 0
0.3308 0.5973 0.4294 127 0 0
0.3262 0.6277 -0.0291 0 0 188
0.3309 0.6101 0.2392 255 49 0
0.3309 0.6101 0.2797 186 0 0
0.3309 0.6367 0.3197 127 0 0
0.3308 0.6230 0.3578 127 0 0
0.3308 0.6229 0.3991 127 0 0
0.3308 0.6098 0.4348 127 0 0
0.3308 0.6365 0.4462 127 0 0
0.3253 0.6546 -0.0011 0 15 255
0.3252 0.6544 0.0351 0 120 255
0.3252 0.6543 0.0784 0 246 255
0.3251 0.6541 0.1145 96 255 158
0.3250 0.6540 0.1578 223 255 31
0.3249 0.6538 0.1938 255 181 0
0.3249 0.6537 0.2371 255 55 0
0.3309 0.6509 0.2799 185 0 0
0.3247 0.6534 0.3163 127 0 0
0.3246 0.6532 0.3595 127 0 0
0.3246 0.6531 0.3955 127 0 0
0.3307 0.6507 0.4379 127 0 0
0.3307 0.6655 0.4586 127 0 0
0.3307 0.6810 0.4352 127 0 0
0.3307 0.7141 0.4794 127 0 0
0.3432 0.7996 -0.0283 0 0 190
0.3225 0.8391 -0.0281 0 0 191
0.3479 0.8795 -0.0279 0 0 191
0.3287 0.8807 -0.0279 0 0 191
0.3253 0.9272 -0.0277 0 0 192
0.3216 0.9787 -0.0274 0 0 193
0.3288 1.0355 -0.0272 0 0 194
0.3249 1.0999 -0.0269 0 0 194
0.3204 1.1727 -0.0265 0 0 195
0.3290 1.2547 -0.0261 0 0 197
0.3232 1.2869 -0.0029 0 9 255
0.3232 1.2867 0.0391 0 132 255
0.3424 1.3058 0.0797 0 250 255
0.3231 1.2865 0.1090 80 255 174
0.3231 1.2863 0.1510 203 255 51
0.3230 1.2861 0.1930 255 184 0
0.3230 1.2860 0.2349 255 62 0
0.3229 1.2858 0.2769 194 0 0
0.3229 1.2856 0.3188 127 0 0
0.3229 1.2855 0.3467 127 0 0
0.3228 1.2853 0.3887 127 0 0
0.3228 1.2853 0.4026 127 0 0
0.3629 0.5829 -0.0293 0 0 187
0.3607 0.6256 -0.0291 0 0 188
0.3641 0.6313 0.2210 255 102 0
0.3625 0.6546 -0.0016 0 13 255
0.3624 0.6544 0.0347 0 119 255
0.3623 0.6543 0.0781 0 245 255
0.3623 0.6541 0.1143 96 255 158
0.3622 0.6540 0.1578 222 255 32
0.3621 0.6538 0.1939 255 181 0
0.3994 0.6537 0.2231 255 96 0
0.3671 0.8783 -0.0279 0 0 191
0.3658 0.9247 -0.0277 0 0 192
0.3643 0.9761 -0.0274 0 0 193
0.3626 1.0334 -0.0272 0 0 194
0.3607 1.0977 -0.0269 0 0 194
0.3713 1.1695 -0.0265 0 0 195
0.3698 1.2521 -0.0261 0 0 197
0.3623 1.3260 -0.0083 0 0 249
0.3623 1.3259 0.0351 0 120 255
0.3622 1.3257 0.0784 0 246 255
0.3622 1.3256 0.1073 75 255 179
0.3621 1.3254 0.1506 202 255 52
0.3621 1.3252 0.1939 255 181 0
0.3620 1.3250 0.2371 255 55 0
0.3620 1.3249 0.2660 226 0 0
0.3620 1.3247 0.3093 127 0 0
0.3619 1.3246 0.3525 127 0 0
0.3619 1.3244 0.3957 127 0 0
0.4022 0.6230 -0.0290 0 0 188
0.4075 0.6546 -0.0022 0 11 255
0.4074 0.6544 0.0341 0 117 255
0.4073 0.6543 0.0778 0 244 255
0.4072 0.6541 0.1141 95 255 159
0.4071 0.6540 0.1577 222 255 32
0.4070 0.6538 0.1941 255 181 0
0.4070 0.6537 0.2231 255 96 0
0.4069 0.9735 -0.0274 0 0 193
0.4077 1.0306 -0.0271 0 0 194
0.4086 1.0947 -0.0268 0 0 195
0.4095 1.1671 -0.0265 0 0 196
0.4106 1.2496 -0.0261 0 0 197
0.4119 1.3443 -0.0257 0 0 198
0.4236 1.3822 -0.0009 0 15 255
0.4039 1.3676 0.0308 0 107 255
0.4038 1.3674 0.0756 0 238 255
0.4234 1.3817 0.1198 112 255 142
0.4038 1.3671 0.1501 200 255 54
0.4037 1.3669 0.1948 255 179 0
0.4036 1.3667 0.2395 255 48 0
0.4036 1.3666 0.2693 216 0 0
0.4035 1.3664 0.3140 127 0 0
0.4035 1.3662 0.3586 127 0 0
0.4035 1.3660 0.3884 127 0 0
0.4034 1.3660 0.4033 127 0 0
0.4415 1.0285 -0.0271 0 0 194
0.4444 1.0925 -0.0268 0 0 195
0.4477 1.1647 -0.0265 0 0 196
0.4515 1.2470 -0.0261 0 0 197
0.4412 1.3424 -0.0256 0 0 198
0.4423 1.3931 -0.0023 0 11 255
0.4423 1.3930 0.0281 0 100 255
0.4422 1.3928 0.0738 0 233 255
0.4422 1.3926 0.1194 111 255 143
0.4421 1.3925 0.1498 199 255 55
0.4421 1.3923 0.1954 255 177 0
0.4420 1.3922 0.2258 255 88 0
0.4420 1.3920 0.2714 210 0 0
0.4419 1.3918 0.3169 127 0 0
0.4419 1.3917 0.3473 127 0 0
0.4418 1.3915 0.3929 127 0 0
0.4614 1.4041 -0.0037 0 7 255
0.4614 1.4040 0.0270 0 96 255
0.4613 1.4038 0.0730 0 230 255
0.4613 1.4036 0.1190 110 255 144
0.4612 1.4035 0.1497 199 255 55
0.4612 1.4033 0.1957 255 176 0
0.4611 1.4032 0.2263 255 87 0
0.4611 1.4030 0.2723 208 0 0
0.4610 1.4028 0.3182 127 0 0
0.4610 1.4027 0.3489 127 0 0
0.4609 1.4025 0.3948 127 0 0
0.4859 1.1624 -0.0264 0 0 196
0.4923 1.2444 -0.0261 0 0 197
0.4850 1.3397 -0.0256 0 0 198
0.4809 1.4154 -0.0052 0 3 255
0.4808 1.4152 0.0258 0 93 255
0.4808 1.4150 0.0722 0 228 255
0.4807 1.4149 0.1186 108 255 146
0.4807 1.4147 0.1495 199 255 55
0.4806 1.4145 0.1959 255 175 0
0.4805 1.4144 0.2268 255 85 0
0.4805 1.4142 0.2732 205 0 0
0.4804 1.4140 0.3196 127 0 0
0.4804 1.4139 0.3505 127 0 0
0.4803 1.4137 0.3968 127 0 0
0.5331 1.2419 -0.0260 0 0 197
0.5289 1.3369 -0.0256 0 0 198
0.5208 1.4384 -0.0082 0 0 249
0.5207 1.4382 0.0391 0 132 255
0.5206 1.4381 0.0706 0 223 255
0.5206 1.4379 0.1178 106 255 148
0.5205 1.4378 0.1493 198 255 56
0.5205 1.4376 0.1965 255 174 0
0.5204 1.4374 0.2279 255 82 0
0.5203 1.4372 0.2751 200 0 0
0.5203 1.4371 0.3066 127 0 0
0.5202 1.4369 0.3537 127 0 0
0.5202 1.4368 0.3852 127 0 0
0.5201 1.4367 0.4009 127 0 0
0.5412 1.4503 -0.0097 0 0 244
0.5412 1.4501 0.0380 0 128 255
0.5411 1.4499 0.0697 0 221 255
0.5410 1.4497 0.1174 105 255 149
0.5410 1.4496 0.1491 197 255 57
0.5409 1.4494 0.1967 255 173 0
0.5409 1.4492 0.2285 255 80 0
0.5408 1.4490 0.2761 197 0 0
0.5407 1.4489 0.3078 127 0 0
0.5407 1.4487 0.3554 127 0 0
0.5406 1.4486 0.3871 127 0 0
0.5406 1.4485 0.4030 127 0 0
0.5727 1.3342 -0.0256 0 0 198
0.5621 1.4623 -0.0113 0 0 240
0.5620 1.4621 0.0368 0 125 255
0.5620 1.4620 0.0689 0 218 255
0.5619 1.4618 0.1169 104 255 150
0.5618 1.4616 0.1490 197 255 57
0.5617 1.4614 0.1970 255 172 0
0.5617 1.4613 0.2291 255 79 0
0.5616 1.4611 0.2771 194 0 0
0.5616 1.4609 0.3091 127 0 0
0.5615 1.4607 0.3571 127 0 0
0.5614 1.4606 0.3891 127 0 0
0.6029 1.4422 -0.0250 0 0 200
0.6049 1.4871 -0.0145 0 0 230
0.6048 1.4868 0.0345 0 118 255
0.6048 1.4867 0.0671 0 213 255
0.6047 1.4865 0.1161 101 255 153
0.6046 1.4863 0.1487 196 255 58
0.6045 1.4861 0.1976 255 170 0
0.6045 1.4860 0.2302 255 75 0
0.6044 1.4858 0.2791 188 0 0
0.6043 1.4856 0.3117 127 0 0
0.6043 1.4855 0.3443 127 0 0
0.6042 1.4853 0.3932 127 0 0
0.6493 1.5127 -0.0012 0 14 255
0.6492 1.5125 0.0321 0 111 255
0.6492 1.5124 0.0653 0 208 255
0.6491 1.5121 0.1152 98 255 156
0.6490 1.5120 0.1484 195 255 59
0.6489 1.5118 0.1982 255 169 0
0.6489 1.5116 0.2314 255 72 0
0.6488 1.5115 0.2646 230 0 0
0.6487 1.5113 0.3144 127 0 0
0.6486 1.5111 0.3476 127 0 0
0.6485 1.5109 0.3974 127 0 0
